<svg width="47" height="47" viewBox="0 0 47 47" fill="none" xmlns="http://www.w3.org/2000/svg">
<g clip-path="url(#clip0_5_63)">
<path fill-rule="evenodd" clip-rule="evenodd" d="M31.3177 5.90048C33.9301 4.37886 37.2083 6.26081 37.2083 9.28448V15.6667C37.9799 15.6667 38.7438 15.8186 39.4566 16.1139C40.1694 16.4091 40.817 16.8419 41.3626 17.3874C41.9081 17.933 42.3409 18.5806 42.6361 19.2934C42.9314 20.0062 43.0833 20.7702 43.0833 21.5417C43.0833 22.3132 42.9314 23.0772 42.6361 23.79C42.3409 24.5027 41.9081 25.1504 41.3626 25.6959C40.817 26.2415 40.1694 26.6742 39.4566 26.9695C38.7438 27.2647 37.9799 27.4167 37.2083 27.4167V33.2917C37.2083 36.519 33.5247 38.3618 30.9417 36.425L26.9075 33.3974C24.7511 31.7806 22.2403 30.7011 19.5833 30.2484V35.8179C19.5836 37.0982 19.121 38.3354 18.2809 39.3014C17.4407 40.2674 16.2797 40.8972 15.0118 41.0747C13.7439 41.2521 12.4546 40.9653 11.3816 40.267C10.3086 39.5687 9.5241 38.5061 9.17284 37.2749L6.09826 26.5119C4.99183 25.2053 4.27179 23.616 4.01907 21.9226C3.76635 20.2292 3.99096 18.4989 4.66766 16.9262C5.34437 15.3534 6.44633 14.0006 7.84969 13.0198C9.25305 12.039 10.9022 11.469 12.6117 11.374L18.5219 11.045C21.4136 10.8841 24.2259 10.0391 26.7273 8.57948L31.3177 5.90048ZM11.0333 29.5278L12.9387 36.1998C13.0304 36.5228 13.2359 36.8016 13.5172 36.9849C13.7984 37.1682 14.1365 37.2436 14.469 37.197C14.8015 37.1505 15.1059 36.9852 15.3261 36.7317C15.5462 36.4782 15.6672 36.1537 15.6667 35.8179V29.9234L12.6117 29.753C12.08 29.7235 11.5519 29.6481 11.0333 29.5278ZM39.1667 21.5417C39.1667 21.0223 38.9604 20.5242 38.5931 20.1569C38.2258 19.7897 37.7277 19.5834 37.2083 19.5834V23.5C37.7277 23.5 38.2258 23.2937 38.5931 22.9264C38.9604 22.5592 39.1667 22.0611 39.1667 21.5417Z" fill="#FF0000"/>
</g>
<defs>
<clipPath id="clip0_5_63">
<rect width="47" height="47" fill="white"/>
</clipPath>
</defs>
</svg>
