<svg width="47" height="47" viewBox="0 0 47 47" fill="none" xmlns="http://www.w3.org/2000/svg">
<path d="M7.83333 41.125C6.75624 41.125 5.83387 40.7411 5.0662 39.9735C4.29853 39.2058 3.91535 38.2841 3.91666 37.2083V29.375H17.625V33.2916H29.375V29.375H43.0833V37.2083C43.0833 38.2854 42.6995 39.2078 41.9318 39.9754C41.1642 40.7431 40.2424 41.1263 39.1667 41.125H7.83333ZM21.5417 29.375V25.4583H25.4583V29.375H21.5417ZM3.91666 25.4583V15.6666C3.91666 14.5895 4.30049 13.6672 5.06816 12.8995C5.83583 12.1318 6.75755 11.7487 7.83333 11.75H15.6667V7.8333C15.6667 6.75621 16.0505 5.83384 16.8182 5.06617C17.5858 4.2985 18.5075 3.91532 19.5833 3.91663H27.4167C28.4937 3.91663 29.4161 4.30046 30.1838 5.06813C30.9515 5.8358 31.3346 6.75752 31.3333 7.8333V11.75H39.1667C40.2437 11.75 41.1661 12.1338 41.9338 12.9015C42.7015 13.6691 43.0846 14.5909 43.0833 15.6666V25.4583H29.375V21.5416H17.625V25.4583H3.91666ZM19.5833 11.75H27.4167V7.8333H19.5833V11.75Z" fill="#FF0000"/>
</svg>
