<svg width="47" height="47" viewBox="0 0 47 47" fill="none" xmlns="http://www.w3.org/2000/svg">
<path d="M11.75 27.4166H35.25V23.5H11.75V27.4166ZM11.75 21.5416H35.25V17.625H11.75V21.5416ZM11.75 15.6666H35.25V11.75H11.75V15.6666ZM7.83333 35.25C6.75624 35.25 5.83387 34.8661 5.0662 34.0985C4.29853 33.3308 3.91535 32.4091 3.91666 31.3333V7.8333C3.91666 6.75621 4.30049 5.83384 5.06816 5.06617C5.83583 4.2985 6.75755 3.91532 7.83333 3.91663H39.1667C40.2437 3.91663 41.1661 4.30046 41.9338 5.06813C42.7015 5.8358 43.0846 6.75752 43.0833 7.8333V43.0833L35.25 35.25H7.83333Z" fill="#FF0000"/>
</svg>
