<svg width="47" height="47" viewBox="0 0 47 47" fill="none" xmlns="http://www.w3.org/2000/svg">
<path d="M14.6875 16.1562C16.2456 16.1562 17.74 15.5373 18.8418 14.4355C19.9435 13.3337 20.5625 11.8394 20.5625 10.2812C20.5625 8.7231 19.9435 7.22877 18.8418 6.127C17.74 5.02522 16.2456 4.40625 14.6875 4.40625C13.1294 4.40625 11.635 5.02522 10.5332 6.127C9.43147 7.22877 8.8125 8.7231 8.8125 10.2812C8.8125 11.8394 9.43147 13.3337 10.5332 14.4355C11.635 15.5373 13.1294 16.1562 14.6875 16.1562ZM2.9375 22.7656C2.9375 21.7918 3.32436 20.8578 4.01297 20.1692C4.70158 19.4806 5.63553 19.0938 6.60938 19.0938H15.9727C15.6076 20.03 15.4207 21.0263 15.4219 22.0312C15.4219 24.7631 16.7775 27.1792 18.8543 28.6406H15.4219C14.3478 28.6405 13.2943 28.9348 12.3758 29.4915C11.4573 30.0483 10.709 30.8462 10.2122 31.7984C7.39809 31.0743 5.59741 29.6658 4.48556 28.0678C2.9375 25.8427 2.9375 23.5382 2.9375 23.1328V22.7656ZM36.7878 31.7984C39.6019 31.0743 41.4026 29.6658 42.5144 28.0678C44.0625 25.8427 44.0625 23.5367 44.0625 23.1328V22.7656C44.0625 21.7918 43.6756 20.8578 42.987 20.1692C42.2984 19.4806 41.3645 19.0938 40.3906 19.0938H31.0273C31.3828 20.0044 31.5781 20.9943 31.5781 22.0312C31.5781 24.7631 30.2225 27.1792 28.1457 28.6406H31.5781C32.6522 28.6405 33.7057 28.9348 34.6242 29.4915C35.5427 30.0483 36.291 30.8462 36.7878 31.7984ZM38.1875 10.2812C38.1875 11.8394 37.5685 13.3337 36.4668 14.4355C35.365 15.5373 33.8706 16.1562 32.3125 16.1562C30.7544 16.1562 29.26 15.5373 28.1582 14.4355C27.0565 13.3337 26.4375 11.8394 26.4375 10.2812C26.4375 8.7231 27.0565 7.22877 28.1582 6.127C29.26 5.02522 30.7544 4.40625 32.3125 4.40625C33.8706 4.40625 35.365 5.02522 36.4668 6.127C37.5685 7.22877 38.1875 8.7231 38.1875 10.2812ZM11.75 34.5156C11.75 33.5418 12.1369 32.6078 12.8255 31.9192C13.5141 31.2306 14.448 30.8438 15.4219 30.8438H31.5781C32.0603 30.8438 32.5378 30.9387 32.9833 31.1233C33.4288 31.3078 33.8336 31.5783 34.1745 31.9192C34.5155 32.2602 34.786 32.665 34.9705 33.1105C35.155 33.556 35.25 34.0334 35.25 34.5156V34.8828C35.25 35.2867 35.25 37.5927 33.7019 39.8178C32.0863 42.1399 29.0166 44.0625 23.5 44.0625C17.9848 44.0625 14.9137 42.1399 13.2981 39.8178C11.75 37.5927 11.75 35.2882 11.75 34.8828V34.5156ZM23.5 27.9062C25.0581 27.9062 26.5525 27.2873 27.6543 26.1855C28.756 25.0837 29.375 23.5894 29.375 22.0312C29.375 20.4731 28.756 18.9788 27.6543 17.877C26.5525 16.7752 25.0581 16.1562 23.5 16.1562C21.9419 16.1562 20.4475 16.7752 19.3457 17.877C18.244 18.9788 17.625 20.4731 17.625 22.0312C17.625 23.5894 18.244 25.0837 19.3457 26.1855C20.4475 27.2873 21.9419 27.9062 23.5 27.9062Z" fill="#FF0000"/>
</svg>
